<svg width="346" height="272" viewBox="0 0 346 272" fill="none" xmlns="http://www.w3.org/2000/svg">
<rect y="76" width="16" height="135" fill="black"/>
<rect x="75" y="47" width="16" height="60" transform="rotate(-90 75 47)" fill="black"/>
<rect x="196" y="92" width="16" height="60" transform="rotate(-90 196 92)" fill="black"/>
<rect x="30" y="16" width="16" height="31" fill="black"/>
<rect x="164" y="16" width="16" height="30" fill="black"/>
<rect x="301" y="151" width="16" height="61" fill="black"/>
<rect x="330" y="46" width="16" height="77" fill="black"/>
<rect x="317" y="120" width="16" height="31" fill="black"/>
<rect x="301" y="76" width="16" height="31" fill="black"/>
<rect x="282" y="47" width="16" height="31" fill="black"/>
<rect x="45" width="16" height="16" fill="black"/>
<rect x="60" y="16" width="16" height="16" fill="black"/>
<rect x="44" y="16" width="16" height="59" fill="#A8A8A8"/>
<rect x="150" y="16" width="16" height="59" fill="#A8A8A8"/>
<rect x="60" y="237" width="16" height="26" fill="#A8A8A8"/>
<rect x="106" y="235" width="16" height="26" fill="#A8A8A8"/>
<rect x="301" y="120" width="16" height="31" fill="#A8A8A8"/>
<rect x="317" y="88" width="13" height="31" fill="#A8A8A8"/>
<rect x="298" y="45" width="32" height="31" fill="#A8A8A8"/>
<rect x="195" y="91" width="61" height="165" fill="#A8A8A8"/>
<rect x="46" y="241" width="61" height="165" transform="rotate(-90 46 241)" fill="#A8A8A8"/>
<rect x="252" y="227" width="120" height="49" transform="rotate(-90 252 227)" fill="#A8A8A8"/>
<rect x="16" y="47" width="180" height="164" fill="#A8A8A8"/>
<rect x="137" y="84" width="11" height="11" fill="#F74B4B"/>
<rect x="131" y="81" width="11" height="11" fill="#F74B4B"/>
<rect x="142" y="81" width="11" height="11" fill="#F74B4B"/>
<rect x="145" y="77" width="11" height="11" fill="#F74B4B"/>
<rect x="143" y="71" width="11" height="11" fill="#F74B4B"/>
<rect x="140" y="93" width="5" height="5" fill="#F74B4B"/>
<rect x="129" y="71" width="11" height="11" fill="#F74B4B"/>
<rect x="127" y="77" width="18" height="11" fill="#F74B4B"/>
<rect x="56" y="84" width="11" height="11" fill="#F74B4B"/>
<rect x="50" y="81" width="11" height="11" fill="#F74B4B"/>
<rect x="61" y="81" width="11" height="11" fill="#F74B4B"/>
<rect x="64" y="77" width="11" height="11" fill="#F74B4B"/>
<rect x="62" y="71" width="11" height="11" fill="#F74B4B"/>
<rect x="59" y="93" width="5" height="5" fill="#F74B4B"/>
<rect x="66" y="75" width="5" height="5" fill="#EAD1D1"/>
<rect x="147" y="74" width="5" height="5" fill="#EAD1D1"/>
<rect x="48" y="71" width="11" height="11" fill="#F74B4B"/>
<rect x="46" y="77" width="18" height="11" fill="#F74B4B"/>
<rect x="135" y="16" width="16" height="16" fill="black"/>
<rect x="149" width="16" height="16" fill="black"/>
<rect x="256" y="91" width="16" height="16" fill="black"/>
<rect x="288" y="211" width="16" height="16" fill="black"/>
<rect x="272" y="227" width="16" height="16" fill="black"/>
<rect x="256" y="241" width="16" height="16" fill="black"/>
<rect x="89" y="113" width="18" height="16" fill="black"/>
<rect x="74" y="113" width="16" height="16" fill="black"/>
<rect x="61" y="105" width="16" height="24" fill="black"/>
<rect x="117" y="105" width="16" height="24" fill="black"/>
<rect x="152" y="94" width="16" height="16" fill="#D7A3A3"/>
<rect x="152" y="94" width="16" height="16" fill="#D7A3A3"/>
<rect x="30" y="95" width="16" height="16" fill="#D7A3A3"/>
<rect x="30" y="95" width="16" height="16" fill="#D7A3A3"/>
<rect x="16" y="165" width="16" height="46" fill="#D7A3A3"/>
<rect x="16" y="165" width="16" height="46" fill="#555555"/>
<rect x="197" y="91" width="16" height="31" fill="#D7A3A3"/>
<rect x="197" y="91" width="16" height="31" fill="#555555"/>
<rect x="225" y="91" width="16" height="31" fill="#D7A3A3"/>
<rect x="225" y="91" width="16" height="31" fill="#555555"/>
<rect x="180" y="76" width="16" height="16" fill="#D7A3A3"/>
<rect x="180" y="76" width="16" height="16" fill="#555555"/>
<rect x="256" y="227" width="16" height="16" fill="#D7A3A3"/>
<rect x="256" y="227" width="16" height="16" fill="#555555"/>
<rect x="272" y="211" width="16" height="16" fill="#D7A3A3"/>
<rect x="272" y="211" width="16" height="16" fill="#555555"/>
<rect x="288" y="196" width="16" height="16" fill="#D7A3A3"/>
<rect x="288" y="196" width="16" height="16" fill="#555555"/>
<rect x="317" y="76" width="13" height="16" fill="#D7A3A3"/>
<rect x="317" y="76" width="13" height="16" fill="#555555"/>
<rect x="317" y="104" width="13" height="16" fill="#D7A3A3"/>
<rect x="317" y="104" width="13" height="16" fill="#555555"/>
<rect x="166" y="46" width="14" height="16" fill="#D7A3A3"/>
<rect x="166" y="46" width="14" height="16" fill="#555555"/>
<rect x="121" y="225" width="16" height="16" fill="#D7A3A3"/>
<rect x="121" y="225" width="16" height="16" fill="#555555"/>
<rect x="180" y="225" width="16" height="16" fill="#D7A3A3"/>
<rect x="180" y="225" width="16" height="16" fill="#555555"/>
<rect x="30" y="211" width="16" height="16" fill="#D7A3A3"/>
<rect x="30" y="211" width="16" height="16" fill="#555555"/>
<rect x="46" y="225" width="16" height="16" fill="#D7A3A3"/>
<rect x="46" y="225" width="16" height="16" fill="#555555"/>
<rect x="135" y="31" width="16" height="16" fill="#D7A3A3"/>
<rect x="135" y="31" width="16" height="16" fill="#555555"/>
<rect x="60" y="31" width="16" height="16" fill="#D7A3A3"/>
<rect x="60" y="31" width="16" height="16" fill="#555555"/>
<rect x="75" y="47" width="31" height="16" fill="#D7A3A3"/>
<rect x="75" y="47" width="31" height="16" fill="#555555"/>
<rect x="210" y="225" width="32" height="16" fill="#D7A3A3"/>
<rect x="210" y="225" width="32" height="16" fill="#555555"/>
<rect x="210" y="225" width="32" height="16" fill="#D7A3A3"/>
<rect x="210" y="225" width="32" height="16" fill="#555555"/>
<rect x="119" y="47" width="16" height="16" fill="#D7A3A3"/>
<rect x="119" y="47" width="16" height="16" fill="#555555"/>
<rect x="106" y="113" width="16" height="16" fill="black"/>
<rect x="16" y="211" width="16" height="16" fill="black"/>
<rect x="30" y="225" width="16" height="16" fill="black"/>
<rect x="61" y="255" width="16" height="16" fill="black"/>
<rect x="74" y="240" width="32" height="16" fill="black"/>
<rect x="105" y="256" width="32" height="16" fill="black"/>
<rect x="180" y="256" width="32" height="16" fill="black"/>
<rect x="210" y="241" width="32" height="16" fill="black"/>
<rect x="298" y="30" width="32" height="16" fill="black"/>
<rect x="240" y="256" width="32" height="16" fill="black"/>
<rect x="46" y="241" width="16" height="30" fill="black"/>
<rect x="16" y="46" width="16" height="30" fill="black"/>
<rect x="180" y="46" width="16" height="30" fill="black"/>
<rect x="282" y="120" width="16" height="31" fill="black"/>
<rect x="272" y="123" width="16" height="45" transform="rotate(-90 272 123)" fill="black"/>
<rect x="121" y="257" width="16" height="75" transform="rotate(-90 121 257)" fill="black"/>
</svg>
