<svg width="448" height="103" viewBox="0 0 448 103" fill="none" xmlns="http://www.w3.org/2000/svg">
<path d="M0 32.9261H4.63636V37.5625H0V32.9261ZM0 28.2898H4.63636V32.9261H0V28.2898ZM0 23.6534H4.63636V28.2898H0V23.6534ZM0 19.017H4.63636V23.6534H0V19.017ZM0 14.3807H4.63636V19.017H0V14.3807ZM4.63636 23.6534H9.27273V28.2898H4.63636V23.6534ZM9.27273 14.3807H13.9091V19.017H9.27273V14.3807ZM9.27273 19.017H13.9091V23.6534H9.27273V19.017ZM9.27273 23.6534H13.9091V28.2898H9.27273V23.6534ZM9.27273 28.2898H13.9091V32.9261H9.27273V28.2898ZM9.27273 32.9261H13.9091V37.5625H9.27273V32.9261ZM18.5273 19.017H23.1637V23.6534H18.5273V19.017ZM18.5273 23.6534H23.1637V28.2898H18.5273V23.6534ZM18.5273 28.2898H23.1637V32.9261H18.5273V28.2898ZM23.1637 32.9261H27.8001V37.5625H23.1637V32.9261ZM27.8001 32.9261H32.4364V37.5625H27.8001V32.9261ZM27.8001 28.2898H32.4364V32.9261H27.8001V28.2898ZM27.8001 23.6534H32.4364V28.2898H27.8001V23.6534ZM27.8001 19.017H32.4364V23.6534H27.8001V19.017ZM37.0547 32.9261H41.6911V37.5625H37.0547V32.9261ZM37.0547 28.2898H41.6911V32.9261H37.0547V28.2898ZM37.0547 23.6534H41.6911V28.2898H37.0547V23.6534ZM37.0547 19.017H41.6911V23.6534H37.0547V19.017ZM41.6911 19.017H46.3274V23.6534H41.6911V19.017ZM46.3274 23.6534H50.9638V28.2898H46.3274V23.6534ZM46.3274 28.2898H50.9638V32.9261H46.3274V28.2898ZM46.3274 32.9261H50.9638V37.5625H46.3274V32.9261ZM64.8548 19.017H69.4911V23.6534H64.8548V19.017ZM64.8548 23.6534H69.4911V28.2898H64.8548V23.6534ZM64.8548 28.2898H69.4911V32.9261H64.8548V28.2898ZM64.8548 32.9261H69.4911V37.5625H64.8548V32.9261ZM64.8548 37.5625H69.4911V42.1989H64.8548V37.5625ZM60.2184 37.5625H64.8548V42.1989H60.2184V37.5625ZM55.582 37.5625H60.2184V42.1989H55.582V37.5625ZM60.2184 19.017H64.8548V23.6534H60.2184V19.017ZM55.582 23.6534H60.2184V28.2898H55.582V23.6534ZM55.582 28.2898H60.2184V32.9261H55.582V28.2898ZM78.7457 19.017H83.3821V23.6534H78.7457V19.017ZM83.3821 23.6534H88.0185V28.2898H83.3821V23.6534ZM74.1094 23.6534H78.7457V28.2898H74.1094V23.6534ZM83.3821 28.2898H88.0185V32.9261H83.3821V28.2898ZM78.7457 28.2898H83.3821V32.9261H78.7457V28.2898ZM74.1094 28.2898H78.7457V32.9261H74.1094V28.2898ZM74.1094 32.9261H78.7457V37.5625H74.1094V32.9261ZM78.7457 37.5625H83.3821V42.1989H78.7457V37.5625ZM92.6367 19.017H97.2731V23.6534H92.6367V19.017ZM92.6367 23.6534H97.2731V28.2898H92.6367V23.6534ZM92.6367 28.2898H97.2731V32.9261H92.6367V28.2898ZM92.6367 32.9261H97.2731V37.5625H92.6367V32.9261ZM97.2731 19.017H101.909V23.6534H97.2731V19.017Z" fill="black"/>
<rect x="132" y="34.0625" width="312" height="4" fill="#424040"/>
<rect x="132" y="14.0625" width="312" height="4" fill="#424040"/>
<rect x="132" y="18.0625" width="251" height="16" fill="#5EE270"/>
<rect x="128" y="34.0625" width="16" height="4" transform="rotate(-90 128 34.0625)" fill="#424040"/>
<rect x="444" y="34.0625" width="16" height="4" transform="rotate(-90 444 34.0625)" fill="#424040"/>
<path d="M14 65.3807H18.6364V70.017H14V65.3807ZM18.6364 65.3807H23.2727V70.017H18.6364V65.3807ZM23.2727 65.3807H27.9091V70.017H23.2727V65.3807ZM18.6364 70.017H23.2727V74.6534H18.6364V70.017ZM18.6364 74.6534H23.2727V79.2898H18.6364V74.6534ZM18.6364 79.2898H23.2727V83.9261H18.6364V79.2898ZM18.6364 83.9261H23.2727V88.5625H18.6364V83.9261ZM32.5273 65.3807H37.1637V70.017H32.5273V65.3807ZM32.5273 70.017H37.1637V74.6534H32.5273V70.017ZM32.5273 74.6534H37.1637V79.2898H32.5273V74.6534ZM32.5273 79.2898H37.1637V83.9261H32.5273V79.2898ZM32.5273 83.9261H37.1637V88.5625H32.5273V83.9261ZM37.1637 70.017H41.8001V74.6534H37.1637V70.017ZM41.8001 74.6534H46.4364V79.2898H41.8001V74.6534ZM41.8001 79.2898H46.4364V83.9261H41.8001V79.2898ZM41.8001 83.9261H46.4364V88.5625H41.8001V83.9261ZM51.0547 83.9261H55.6911V88.5625H51.0547V83.9261ZM51.0547 79.2898H55.6911V83.9261H51.0547V79.2898ZM51.0547 74.6534H55.6911V79.2898H51.0547V74.6534ZM51.0547 65.3807H55.6911V70.017H51.0547V65.3807ZM60.3184 70.017H64.9547V74.6534H60.3184V70.017ZM60.3184 74.6534H64.9547V79.2898H60.3184V74.6534ZM60.3184 79.2898H64.9547V83.9261H60.3184V79.2898ZM60.3184 83.9261H64.9547V88.5625H60.3184V83.9261ZM64.9547 70.017H69.5911V74.6534H64.9547V70.017ZM83.4866 70.017H88.123V74.6534H83.4866V70.017ZM78.8502 70.017H83.4866V74.6534H78.8502V70.017ZM74.2139 74.6534H78.8502V79.2898H74.2139V74.6534ZM83.4866 79.2898H88.123V83.9261H83.4866V79.2898ZM83.4866 83.9261H88.123V88.5625H83.4866V83.9261ZM74.2139 83.9261H78.8502V88.5625H74.2139V83.9261ZM74.2139 70.017H78.8502V74.6534H74.2139V70.017ZM78.8502 83.9261H83.4866V88.5625H78.8502V83.9261ZM92.7412 65.3807H97.3776V70.017H92.7412V65.3807ZM92.7412 70.017H97.3776V74.6534H92.7412V70.017ZM92.7412 74.6534H97.3776V79.2898H92.7412V74.6534ZM92.7412 79.2898H97.3776V83.9261H92.7412V79.2898ZM92.7412 83.9261H97.3776V88.5625H92.7412V83.9261ZM97.3776 83.9261H102.014V88.5625H97.3776V83.9261ZM97.3776 70.017H102.014V74.6534H97.3776V70.017Z" fill="black"/>
<rect x="132" y="85.0625" width="312" height="4" fill="#424040"/>
<rect x="132" y="65.0625" width="312" height="4" fill="#424040"/>
<rect x="132" y="69.0625" width="302" height="16" fill="#5EE270"/>
<rect x="128" y="85.0625" width="16" height="4" transform="rotate(-90 128 85.0625)" fill="#424040"/>
<rect x="444" y="85.0625" width="16" height="4" transform="rotate(-90 444 85.0625)" fill="#424040"/>
</svg>
