<svg width="80" height="110" viewBox="0 0 80 110" fill="none" xmlns="http://www.w3.org/2000/svg">
<rect x="5" y="105" width="70" height="5" fill="black"/>
<rect x="14" y="86" width="52" height="5" fill="black"/>
<rect x="5" y="91" width="70" height="14" fill="#5D2E1C"/>
<rect x="5" y="91" width="70" height="14" fill="#5D2E1C"/>
<rect x="5" y="91" width="70" height="14" fill="#5D2E1C"/>
<rect x="33" y="63" width="10" height="5" fill="black"/>
<rect y="91" width="5" height="14" fill="black"/>
<rect x="9" y="77" width="5" height="10" fill="black"/>
<rect x="66" y="77" width="5" height="10" fill="black"/>
<rect x="57" y="63" width="5" height="10" fill="black"/>
<rect x="18" y="63" width="5" height="10" fill="black"/>
<rect x="28" y="49" width="5" height="14" fill="black"/>
<rect x="4" y="86" width="5" height="5" fill="black"/>
<rect x="9" y="87" width="5" height="4" fill="#5D2E1C"/>
<rect x="14" y="72" width="5" height="5" fill="black"/>
<rect x="23" y="58" width="5" height="5" fill="black"/>
<rect x="33" y="44" width="5" height="5" fill="black"/>
<rect x="38" y="49" width="5" height="5" fill="black"/>
<rect x="43" y="54" width="5" height="5" fill="black"/>
<rect x="61" y="72" width="5" height="5" fill="black"/>
<rect x="71" y="86" width="5" height="5" fill="black"/>
<rect x="47" y="58" width="10" height="5" fill="black"/>
<rect x="75" y="91" width="5" height="14" fill="black"/>
<rect x="23" y="73" width="34" height="5" fill="black"/>
<rect x="66" y="87" width="5" height="4" fill="#5D2E1C"/>
<rect x="14" y="77" width="52" height="9" fill="#5D2E1C"/>
<rect x="14" y="77" width="52" height="9" fill="#5D2E1C"/>
<rect x="14" y="77" width="52" height="9" fill="#5D2E1C"/>
<rect x="23" y="63" width="10" height="10" fill="#5D2E1C"/>
<rect x="43" y="63" width="14" height="10" fill="#5D2E1C"/>
<rect x="33" y="68" width="10" height="5" fill="#5D2E1C"/>
<rect x="19" y="73" width="4" height="4" fill="#5D2E1C"/>
<rect x="57" y="73" width="4" height="4" fill="#5D2E1C"/>
<rect x="33" y="49" width="5" height="14" fill="#5D2E1C"/>
<rect x="38" y="54" width="5" height="9" fill="#5D2E1C"/>
<rect x="43" y="59" width="4" height="4" fill="#5D2E1C"/>
<rect x="61" y="14" width="3" height="16" fill="#213020"/>
<rect x="67" y="33" width="3" height="17" fill="#213020"/>
<rect x="73" y="53" width="3" height="16" fill="#213020"/>
<rect x="70" y="50" width="3" height="3" fill="#213020"/>
<rect x="64" y="30" width="3" height="3" fill="#213020"/>
<rect width="3" height="16" transform="matrix(-1 0 0 1 19 20)" fill="#213020"/>
<rect width="3" height="17" transform="matrix(-1 0 0 1 13 39)" fill="#213020"/>
<rect width="3" height="16" transform="matrix(-1 0 0 1 7 59)" fill="#213020"/>
<rect width="3" height="3" transform="matrix(-1 0 0 1 10 56)" fill="#213020"/>
<rect width="3" height="3" transform="matrix(-1 0 0 1 16 36)" fill="#213020"/>
<rect x="43" y="3" width="3" height="17" fill="#213020"/>
<rect x="49" y="23" width="3" height="16" fill="#213020"/>
<rect x="46" y="20" width="3" height="3" fill="#213020"/>
<rect x="40" width="3" height="3" fill="#213020"/>
</svg>
